<svg xmlns="http://www.w3.org/2000/svg" viewBox="0 0 210 165"><defs><style>.cls-1{fill:#8000ff;}</style></defs><g id="Ebene_2" data-name="Ebene 2"><g id="Logo-Voidseeker"><path class="cls-1" d="M210,90c0-6.82-16.75-11.93-42-15.77,10.15,2.65,15.71,6.92,15.71,10.52,0,6.94-22.44,12.82-53.59,14.92L179.28,1.45a1,1,0,0,0-.9-1.45H161.25a30.32,30.32,0,0,0-27.13,16.77L105,75,75.88,16.77A30.32,30.32,0,0,0,48.75,0H31.62a1,1,0,0,0-.9,1.45L79.84,99.67c-31.15-2.1-53.59-8-53.59-14.92,0-3.6,5.56-7.87,15.71-10.52C16.75,78.07,0,83.18,0,90c0,10.25,36.74,18.79,85.31,20.63L105,150l19.69-39.37C173.26,108.79,210,100.25,210,90Z"/><path class="cls-1" d="M136.81,136.69h0c14.83,2,24.44,5.7,24.44,9.56,0,6.21-25.18,11.25-56.25,11.25s-56.25-5-56.25-11.25c0-3.86,9.61-7.53,24.44-9.56h0C47.75,139.09,30,144,30,150c0,8.28,33.58,15,75,15s75-6.72,75-15C180,144,162.25,139.09,136.81,136.69Z"/></g></g></svg>