<svg xmlns="http://www.w3.org/2000/svg" viewBox="0 0 999.78 165"><defs><style>.cls-1{fill:#101011;}.cls-2{fill:#8000ff;}</style></defs><g id="Ebene_2" data-name="Ebene 2"><g id="Logo-Voidseeker"><path class="cls-1" d="M84.68,42.4l-35,80.2H35.06L0,42.4H16.16l26.69,61.87L69.78,42.4Z"/><path class="cls-1" d="M83.13,82.5c0-23.72,18.33-41.25,43.19-41.25s43.2,17.42,43.2,41.25-18.33,41.25-43.2,41.25S83.13,106.22,83.13,82.5Zm71.38,0c0-16.39-12-28.19-28.19-28.19S98.14,66.11,98.14,82.5s12,28.19,28.18,28.19S154.51,98.89,154.51,82.5Z"/><path class="cls-1" d="M180.29,42.4h14.89v80.2H180.29Z"/><path class="cls-1" d="M213.16,42.4h35.06c26,0,43.77,16,43.77,40.1s-17.76,40.1-43.77,40.1H213.16ZM247.53,110C265.41,110,277,99.11,277,82.5S265.41,55,247.53,55H228.05v55Z"/><path class="cls-2" d="M529.66,90c0-6.82-16.75-11.93-42-15.77,10.15,2.65,15.71,6.92,15.71,10.52,0,6.94-22.44,12.82-53.59,14.92L498.94,1.45A1,1,0,0,0,498,0H480.91a30.34,30.34,0,0,0-27.14,16.77L424.66,75,395.54,16.77A30.32,30.32,0,0,0,368.41,0H351.28a1,1,0,0,0-.9,1.45L399.5,99.67c-31.15-2.1-53.59-8-53.59-14.92,0-3.6,5.56-7.87,15.71-10.52-25.21,3.84-42,9-42,15.77,0,10.25,36.74,18.79,85.31,20.63L424.66,150l19.68-39.37C492.92,108.79,529.66,100.25,529.66,90Z"/><path class="cls-2" d="M456.47,136.69h0c14.83,2,24.44,5.7,24.44,9.56,0,6.21-25.18,11.25-56.25,11.25s-56.25-5-56.25-11.25c0-3.86,9.61-7.53,24.44-9.56h0c-25.44,2.4-43.19,7.31-43.19,13.31,0,8.28,33.58,15,75,15s75-6.72,75-15C499.66,144,481.91,139.09,456.47,136.69Z"/><path class="cls-1" d="M551.32,114.12l5.16-11.57c6.41,5.16,16.61,8.83,26.47,8.83,12.49,0,17.76-4.47,17.76-10.43,0-17.3-47.67-6-47.67-35.75,0-13,10.31-24,32.31-24,9.63,0,19.71,2.52,26.7,7.1l-4.7,11.58a44.55,44.55,0,0,0-22.11-6.3c-12.38,0-17.42,4.81-17.42,10.88,0,17.07,47.55,6,47.55,35.41,0,12.83-10.42,23.83-32.42,23.83C570.46,123.75,558,119.85,551.32,114.12Z"/><path class="cls-1" d="M688.43,110.11V122.6H628.27V42.4h58.55V54.89H643.17V75.74H681.9V88H643.17v22.11Z"/><path class="cls-1" d="M762.31,110.11V122.6H702.15V42.4H760.7V54.89H717.05V75.74h38.73V88H717.05v22.11Z"/><path class="cls-1" d="M803.65,89l-12.72,13.06V122.6H776V42.4h14.9V83.53L830.57,42.4H847.3L813.61,78.26l35.75,44.34H832Z"/><path class="cls-1" d="M917.54,110.11V122.6H857.38V42.4h58.55V54.89H872.28V75.74H911V88H872.28v22.11Z"/><path class="cls-1" d="M983.74,122.6,967.35,99.11a26.6,26.6,0,0,1-3.09.12h-18.1V122.6h-14.9V42.4h33c21.08,0,34.15,10.77,34.15,28.53,0,12.14-6.19,21.08-17.08,25.32l18.45,26.35ZM963.57,55H946.16V87h17.41c13.07,0,19.83-6,19.83-16S976.64,55,963.57,55Z"/></g></g></svg>